<svg width="125" height="26" viewBox="0 0 125 26" fill="none" xmlns="http://www.w3.org/2000/svg">
<rect x="0.800049" y="0.800171" width="124" height="25" rx="12.5" fill="url(#paint0_linear_5399_77)"/>
<g clip-path="url(#clip0_5399_77)">
<path d="M-1.19995 13.3002C-1.19995 15.9266 -0.682636 18.5273 0.322458 20.9538C1.32755 23.3804 2.80074 25.5851 4.65791 27.4423C6.51509 29.2995 8.71987 30.7727 11.1464 31.7778C13.5729 32.7829 16.1736 33.3002 18.8001 33.3002C21.4265 33.3002 24.0272 32.7829 26.4537 31.7778C28.8802 30.7727 31.085 29.2995 32.9422 27.4423C34.7994 25.5851 36.2725 23.3804 37.2776 20.9538C38.2827 18.5273 38.8 15.9266 38.8 13.3002C38.8 10.6737 38.2827 8.07302 37.2776 5.6465C36.2725 3.21999 34.7994 1.01521 32.9422 -0.841964C31.085 -2.69914 28.8802 -4.17233 26.4537 -5.17742C24.0272 -6.18251 21.4265 -6.69983 18.8001 -6.69983C16.1736 -6.69983 13.5729 -6.18251 11.1464 -5.17742C8.71987 -4.17233 6.51509 -2.69914 4.65791 -0.841964C2.80074 1.01521 1.32755 3.21999 0.322458 5.6465C-0.682636 8.07302 -1.19995 10.6737 -1.19995 13.3002Z" fill="#FFF1DC"/>
<path d="M24.3641 11.6987C24.2626 11.2799 23.8786 10.5835 23.4806 10.0104C23.3055 9.75869 22.9175 9.82037 22.826 10.1139C22.6827 10.5675 22.4549 11.0889 22.0589 11.5575C21.9863 11.643 21.845 11.5992 21.8381 11.4868C21.7625 10.3258 21.2123 7.32418 17.3322 6.90235C17.0646 6.8735 16.8556 7.13316 16.9432 7.38786C17.2357 8.24346 17.4705 9.88802 16.1304 10.8958C16.0756 10.9366 16 10.9227 15.9573 10.87C15.5105 10.3009 14.9534 9.9517 14.1983 9.81042C13.9346 9.76167 13.7128 10.0014 13.7735 10.2631C13.8909 10.7675 13.9396 11.6281 13.4591 12.8001C12.6522 14.765 11.722 19.5106 19.125 19.5106C26.528 19.5106 24.5064 12.2867 24.3641 11.6987ZM15.7215 17.0015C15.665 17.0545 15.5987 17.0957 15.5262 17.123C15.4538 17.1503 15.3767 17.163 15.2993 17.1604C15.222 17.1578 15.1459 17.14 15.0754 17.1079C15.005 17.0759 14.9415 17.0302 14.8887 16.9737C13.9028 15.9191 14.3316 13.9522 14.3833 13.7313C14.4579 13.4149 14.7753 13.2179 15.0917 13.2935C15.1669 13.3112 15.2379 13.3435 15.3006 13.3887C15.3633 13.4338 15.4165 13.4908 15.4572 13.5565C15.4978 13.6222 15.5251 13.6953 15.5375 13.7715C15.5499 13.8478 15.5472 13.9257 15.5294 14.0009C15.4359 14.4028 15.2757 15.6624 15.7483 16.1688C15.9712 16.4066 15.9592 16.7796 15.7215 17.0015Z" fill="#FC7032"/>
<path d="M24.2387 11.3366C24.0686 10.9376 23.7781 10.4392 23.4806 10.0104C23.3055 9.75869 22.9175 9.82037 22.826 10.1139C22.6827 10.5675 22.4549 11.0889 22.0589 11.5575C21.9863 11.643 21.845 11.5992 21.8381 11.4868C21.7624 10.3258 21.2123 7.32418 17.3322 6.90235C17.0646 6.8735 16.8556 7.13316 16.9432 7.38786C17.2357 8.24346 17.4705 9.88802 16.1304 10.8958C16.0756 10.9366 16 10.9227 15.9572 10.87C15.5105 10.3009 14.9534 9.9517 14.1983 9.81042C13.9346 9.76167 13.7128 10.0014 13.7735 10.2631C13.8909 10.7675 13.9396 11.6281 13.4591 12.8001C12.7547 14.5153 11.9578 18.3476 16.6875 19.2957C20.8034 18.8888 24.0447 15.5112 24.2387 11.3366ZM15.7215 17.0015C15.665 17.0545 15.5987 17.0957 15.5262 17.123C15.4538 17.1503 15.3767 17.163 15.2993 17.1604C15.222 17.1578 15.1459 17.14 15.0754 17.1079C15.005 17.0759 14.9415 17.0302 14.8887 16.9736C13.9028 15.9191 14.3316 13.9522 14.3833 13.7313C14.4579 13.4149 14.7753 13.2179 15.0917 13.2935C15.1669 13.3112 15.2379 13.3435 15.3006 13.3887C15.3633 13.4338 15.4165 13.4908 15.4572 13.5565C15.4978 13.6222 15.5251 13.6953 15.5375 13.7715C15.5499 13.8478 15.5472 13.9257 15.5294 14.0009C15.4359 14.4028 15.2757 15.6624 15.7483 16.1688C15.9712 16.4066 15.9592 16.7796 15.7215 17.0015Z" fill="#FF7C33"/>
<path d="M21.6269 10.2721C21.2419 8.92795 20.1933 7.21375 17.331 6.90235C17.0634 6.8735 16.8544 7.13316 16.942 7.38786C17.2345 8.24346 17.4693 9.88802 16.1292 10.8958C16.0744 10.9366 15.9988 10.9227 15.956 10.87C15.5093 10.3009 14.9522 9.9517 14.1971 9.81042C13.9334 9.76167 13.7116 10.0014 13.7723 10.2631C13.8896 10.7675 13.9384 11.6281 13.4579 12.8001C13.1057 13.6577 12.7296 15.0455 13.035 16.3379C13.2081 16.3489 13.3813 16.3558 13.5574 16.3558C13.8668 16.3558 14.1712 16.3379 14.4717 16.3051C14.0488 15.2455 14.3403 13.9124 14.3821 13.7323C14.4567 13.4159 14.7741 13.2189 15.0905 13.2945C15.1657 13.3122 15.2367 13.3445 15.2994 13.3897C15.3621 13.4348 15.4153 13.4918 15.4559 13.5575C15.4966 13.6232 15.5239 13.6963 15.5363 13.7725C15.5487 13.8488 15.546 13.9267 15.5282 14.0019C15.4397 14.3829 15.2924 15.534 15.6795 16.0832C18.5477 15.3361 20.8151 13.1115 21.6269 10.2721Z" fill="#FF8D4D"/>
<path d="M17.331 6.90235C17.0634 6.8735 16.8545 7.13316 16.942 7.38786C17.2345 8.24346 17.4693 9.88802 16.1292 10.8958C16.0745 10.9366 15.9989 10.9227 15.9561 10.87C15.5094 10.3009 14.9523 9.9517 14.1971 9.81042C13.9335 9.76167 13.7116 10.0014 13.7723 10.2631C13.8897 10.7675 13.9385 11.6281 13.4579 12.8001C13.408 12.923 13.3609 13.0471 13.3167 13.1722C16.2277 12.5086 18.5637 10.3347 19.4522 7.5162C18.889 7.21673 18.1926 6.99587 17.331 6.90235Z" fill="#FFA56A"/>
</g>
<path d="M38.0412 16.9542C37.2385 16.9542 36.5082 16.7488 35.8502 16.3382C35.1969 15.9275 34.6765 15.3278 34.2892 14.5392C33.9019 13.7505 33.7082 12.7915 33.7082 11.6622C33.7082 10.5282 33.9089 9.5645 34.3102 8.77117C34.7115 7.97784 35.2529 7.3735 35.9342 6.95817C36.6202 6.53817 37.3855 6.32817 38.2302 6.32817C38.9302 6.32817 39.5229 6.44484 40.0082 6.67817C40.4982 6.90684 40.8949 7.20317 41.1982 7.56717C41.5062 7.93117 41.7279 8.31384 41.8632 8.71517C42.0032 9.1165 42.0732 9.48984 42.0732 9.83517C42.0732 9.84917 42.0732 9.86317 42.0732 9.87717C42.0732 9.89117 42.0732 9.90517 42.0732 9.91917H40.2812C40.2812 9.90517 40.2812 9.89117 40.2812 9.87717C40.2812 9.86317 40.2812 9.84917 40.2812 9.83517C40.2812 9.5925 40.2392 9.3545 40.1552 9.12117C40.0712 8.88784 39.9429 8.6755 39.7702 8.48417C39.5975 8.29284 39.3829 8.14117 39.1262 8.02917C38.8695 7.91717 38.5709 7.86117 38.2302 7.86117C37.7682 7.86117 37.3342 7.9895 36.9282 8.24617C36.5269 8.50284 36.2002 8.91117 35.9482 9.47117C35.7009 10.0265 35.5772 10.7568 35.5772 11.6622C35.5772 12.3482 35.6472 12.9315 35.7872 13.4122C35.9272 13.8928 36.1162 14.2825 36.3542 14.5812C36.5969 14.8798 36.8722 15.0992 37.1802 15.2392C37.4929 15.3745 37.8219 15.4422 38.1672 15.4422C38.6339 15.4422 39.0212 15.3628 39.3292 15.2042C39.6419 15.0455 39.8845 14.8472 40.0572 14.6092C40.2345 14.3712 40.3465 14.1378 40.3932 13.9092V13.1042H38.1882V11.7182H42.0452V16.8002H40.9812L40.8272 15.6522C40.7945 15.7362 40.7175 15.8505 40.5962 15.9952C40.4795 16.1398 40.3115 16.2868 40.0922 16.4362C39.8729 16.5808 39.5929 16.7022 39.2522 16.8002C38.9162 16.9028 38.5125 16.9542 38.0412 16.9542ZM43.859 16.8002V9.36617H45.679V16.8002H43.859ZM44.776 7.99417C44.4773 7.99417 44.216 7.91484 43.992 7.75617C43.7726 7.59284 43.663 7.3665 43.663 7.07717C43.663 6.7925 43.7726 6.57084 43.992 6.41217C44.216 6.2535 44.4773 6.17417 44.776 6.17417C45.07 6.17417 45.3266 6.2535 45.546 6.41217C45.7653 6.57084 45.875 6.7925 45.875 7.07717C45.875 7.3665 45.7653 7.59284 45.546 7.75617C45.3266 7.91484 45.07 7.99417 44.776 7.99417ZM50.0513 16.9542C49.496 16.9542 49.0083 16.8678 48.5883 16.6952C48.1683 16.5178 47.8393 16.2635 47.6013 15.9322C47.3633 15.6008 47.2443 15.2018 47.2443 14.7352C47.2443 14.2265 47.382 13.8088 47.6573 13.4822C47.9373 13.1508 48.313 12.8965 48.7843 12.7192C49.2557 12.5372 49.7783 12.4205 50.3523 12.3692C51.2017 12.2852 51.7943 12.2058 52.1303 12.1312C52.471 12.0518 52.6413 11.9258 52.6413 11.7532C52.6413 11.7485 52.6413 11.7462 52.6413 11.7462C52.6413 11.7415 52.6413 11.7392 52.6413 11.7392C52.6413 11.4125 52.4943 11.1605 52.2003 10.9832C51.9063 10.8058 51.491 10.7172 50.9543 10.7172C50.3897 10.7172 49.9557 10.8175 49.6523 11.0182C49.3537 11.2142 49.2043 11.5268 49.2043 11.9562H47.3843C47.3843 11.3728 47.5383 10.8805 47.8463 10.4792C48.159 10.0732 48.586 9.76517 49.1273 9.55517C49.6687 9.34517 50.2823 9.24017 50.9683 9.24017C51.6077 9.24017 52.1933 9.33584 52.7253 9.52717C53.2573 9.7185 53.6843 10.0078 54.0063 10.3952C54.3283 10.7825 54.4893 11.2655 54.4893 11.8442C54.4893 11.9422 54.4893 12.0402 54.4893 12.1382C54.4893 12.2362 54.4893 12.3342 54.4893 12.4322V15.2322C54.4893 15.4095 54.494 15.5845 54.5033 15.7572C54.5173 15.9252 54.543 16.0768 54.5803 16.2122C54.627 16.3615 54.683 16.4875 54.7483 16.5902C54.8137 16.6928 54.865 16.7628 54.9023 16.8002H53.0823C53.0497 16.7675 53.003 16.7045 52.9423 16.6112C52.8863 16.5132 52.835 16.4012 52.7883 16.2752C52.7417 16.1352 52.7067 15.9858 52.6833 15.8272C52.66 15.6638 52.6483 15.4842 52.6483 15.2882L53.0123 15.5402C52.8723 15.8248 52.6577 16.0745 52.3683 16.2892C52.0837 16.4992 51.743 16.6625 51.3463 16.7792C50.9497 16.8958 50.518 16.9542 50.0513 16.9542ZM50.4993 15.5052C50.882 15.5052 51.2367 15.4398 51.5633 15.3092C51.89 15.1785 52.1537 14.9778 52.3543 14.7072C52.555 14.4318 52.6553 14.0795 52.6553 13.6502V12.6562L53.1033 13.1602C52.8047 13.2722 52.4453 13.3655 52.0253 13.4402C51.6053 13.5102 51.1807 13.5662 50.7513 13.6082C50.2007 13.6595 49.7853 13.7552 49.5053 13.8952C49.23 14.0352 49.0923 14.2638 49.0923 14.5812C49.0923 14.8892 49.209 15.1202 49.4423 15.2742C49.6757 15.4282 50.028 15.5052 50.4993 15.5052ZM50.0233 8.30917L51.6893 6.47517H53.1663L51.2903 8.30917H50.0233ZM63.401 16.9542C62.617 16.9542 61.924 16.7932 61.322 16.4712C60.72 16.1492 60.2487 15.6965 59.908 15.1132C59.5673 14.5298 59.397 13.8462 59.397 13.0622C59.397 12.2828 59.5673 11.6062 59.908 11.0322C60.2487 10.4582 60.72 10.0172 61.322 9.70917C61.924 9.3965 62.617 9.24017 63.401 9.24017C63.989 9.24017 64.5093 9.3265 64.962 9.49917C65.4147 9.67184 65.795 9.90284 66.103 10.1922C66.4157 10.4768 66.6537 10.7918 66.817 11.1372C66.9803 11.4778 67.062 11.8185 67.062 12.1592C67.062 12.1685 67.062 12.1778 67.062 12.1872C67.062 12.1965 67.062 12.2058 67.062 12.2152H65.235C65.235 12.1918 65.2327 12.1662 65.228 12.1382C65.2233 12.1102 65.2187 12.0822 65.214 12.0542C65.1767 11.8162 65.081 11.6015 64.927 11.4102C64.773 11.2142 64.5677 11.0578 64.311 10.9412C64.0543 10.8245 63.744 10.7662 63.38 10.7662C62.9927 10.7662 62.638 10.8525 62.316 11.0252C61.9987 11.1932 61.7443 11.4475 61.553 11.7882C61.3663 12.1288 61.273 12.5535 61.273 13.0622C61.273 13.5662 61.3663 13.9955 61.553 14.3502C61.7397 14.7002 61.9917 14.9685 62.309 15.1552C62.631 15.3372 62.988 15.4282 63.38 15.4282C63.7953 15.4282 64.1337 15.3652 64.395 15.2392C64.661 15.1085 64.8617 14.9358 64.997 14.7212C65.1323 14.5018 65.2093 14.2638 65.228 14.0072H67.062C67.062 14.3525 66.9827 14.7002 66.824 15.0502C66.6653 15.3955 66.432 15.7128 66.124 16.0022C65.816 16.2915 65.4333 16.5225 64.976 16.6952C64.5233 16.8678 63.9983 16.9542 63.401 16.9542ZM74.3884 9.36617C74.7057 9.36617 74.946 9.31017 75.1094 9.19817C75.2774 9.0815 75.3917 8.8855 75.4524 8.61017C75.513 8.33484 75.5434 7.95217 75.5434 7.46217H76.5654C76.5654 8.16217 76.4837 8.71284 76.3204 9.11417C76.157 9.5155 75.9144 9.8025 75.5924 9.97517C75.2704 10.1432 74.869 10.2272 74.3884 10.2272V9.36617ZM71.1194 16.9402C70.592 16.9402 70.158 16.8515 69.8174 16.6742C69.4814 16.4968 69.2177 16.2635 69.0264 15.9742C68.8397 15.6848 68.709 15.3652 68.6344 15.0152C68.5644 14.6652 68.5294 14.3152 68.5294 13.9652C68.5294 13.7925 68.5294 13.6128 68.5294 13.4262C68.5294 13.2395 68.5294 13.0505 68.5294 12.8592V9.36617H70.3774V12.5722C70.3774 12.7402 70.3774 12.9012 70.3774 13.0552C70.3774 13.2092 70.3774 13.3538 70.3774 13.4892C70.3774 13.8205 70.41 14.1285 70.4754 14.4132C70.5407 14.6932 70.6714 14.9195 70.8674 15.0922C71.068 15.2648 71.362 15.3512 71.7494 15.3512C72.118 15.3512 72.4354 15.2438 72.7014 15.0292C72.9674 14.8098 73.1727 14.5345 73.3174 14.2032C73.4667 13.8718 73.5414 13.5358 73.5414 13.1952L74.1714 13.6152C74.1714 14.0678 74.1014 14.4948 73.9614 14.8962C73.8214 15.2928 73.6184 15.6452 73.3524 15.9532C73.0864 16.2612 72.7644 16.5038 72.3864 16.6812C72.013 16.8538 71.5907 16.9402 71.1194 16.9402ZM73.5414 16.8002V9.36617H75.3824V16.8002H73.5414ZM71.8824 19.5442C71.5837 19.5442 71.3247 19.4648 71.1054 19.3062C70.886 19.1475 70.7764 18.9258 70.7764 18.6412C70.7764 18.3518 70.886 18.1278 71.1054 17.9692C71.3294 17.8105 71.5884 17.7312 71.8824 17.7312C72.1764 17.7312 72.433 17.8105 72.6524 17.9692C72.8717 18.1278 72.9814 18.3518 72.9814 18.6412C72.9814 18.9305 72.8717 19.1522 72.6524 19.3062C72.433 19.4648 72.1764 19.5442 71.8824 19.5442ZM80.819 16.9542C80.035 16.9542 79.342 16.7932 78.74 16.4712C78.138 16.1492 77.6666 15.6965 77.326 15.1132C76.9853 14.5298 76.815 13.8462 76.815 13.0622C76.815 12.2828 76.9853 11.6062 77.326 11.0322C77.6666 10.4582 78.138 10.0172 78.74 9.70917C79.342 9.3965 80.035 9.24017 80.819 9.24017C81.407 9.24017 81.9273 9.3265 82.38 9.49917C82.8326 9.67184 83.213 9.90284 83.521 10.1922C83.8336 10.4768 84.0716 10.7918 84.235 11.1372C84.3983 11.4778 84.48 11.8185 84.48 12.1592C84.48 12.1685 84.48 12.1778 84.48 12.1872C84.48 12.1965 84.48 12.2058 84.48 12.2152H82.653C82.653 12.1918 82.6506 12.1662 82.646 12.1382C82.6413 12.1102 82.6366 12.0822 82.632 12.0542C82.5946 11.8162 82.499 11.6015 82.345 11.4102C82.191 11.2142 81.9856 11.0578 81.729 10.9412C81.4723 10.8245 81.162 10.7662 80.798 10.7662C80.4106 10.7662 80.056 10.8525 79.734 11.0252C79.4166 11.1932 79.1623 11.4475 78.971 11.7882C78.7843 12.1288 78.691 12.5535 78.691 13.0622C78.691 13.5662 78.7843 13.9955 78.971 14.3502C79.1576 14.7002 79.4096 14.9685 79.727 15.1552C80.049 15.3372 80.406 15.4282 80.798 15.4282C81.2133 15.4282 81.5516 15.3652 81.813 15.2392C82.079 15.1085 82.2796 14.9358 82.415 14.7212C82.5503 14.5018 82.6273 14.2638 82.646 14.0072H84.48C84.48 14.3525 84.4006 14.7002 84.242 15.0502C84.0833 15.3955 83.85 15.7128 83.542 16.0022C83.234 16.2915 82.8513 16.5225 82.394 16.6952C81.9413 16.8678 81.4163 16.9542 80.819 16.9542ZM92.5337 16.9542C92.0904 16.9542 91.668 16.9052 91.2667 16.8072C90.87 16.7092 90.5154 16.5622 90.2027 16.3662C89.8947 16.1702 89.6497 15.9275 89.4677 15.6382C89.2904 15.3442 89.2017 15.0058 89.2017 14.6232C89.2017 14.5952 89.2017 14.5672 89.2017 14.5392C89.2017 14.5112 89.2017 14.4855 89.2017 14.4622H91.0357C91.0357 14.4855 91.0357 14.5065 91.0357 14.5252C91.0357 14.5392 91.0357 14.5602 91.0357 14.5882C91.0357 14.8915 91.1734 15.1202 91.4487 15.2742C91.7287 15.4235 92.109 15.4982 92.5897 15.4982C92.851 15.4982 93.096 15.4702 93.3247 15.4142C93.558 15.3582 93.7447 15.2718 93.8847 15.1552C94.0294 15.0385 94.1017 14.8892 94.1017 14.7072C94.1017 14.4132 93.95 14.2032 93.6467 14.0772C93.348 13.9512 92.8767 13.8368 92.2327 13.7342C91.878 13.6735 91.528 13.5918 91.1827 13.4892C90.8374 13.3865 90.5224 13.2488 90.2377 13.0762C89.9577 12.9035 89.7314 12.6888 89.5587 12.4322C89.3907 12.1755 89.3067 11.8628 89.3067 11.4942C89.3067 11.0042 89.4514 10.5935 89.7407 10.2622C90.0347 9.92617 90.4267 9.67184 90.9167 9.49917C91.4114 9.3265 91.955 9.24017 92.5477 9.24017C93.117 9.24017 93.6467 9.3335 94.1367 9.52017C94.6267 9.70684 95.021 9.97517 95.3197 10.3252C95.623 10.6752 95.7747 11.0975 95.7747 11.5922C95.7747 11.6108 95.7747 11.6318 95.7747 11.6552C95.7747 11.6738 95.7747 11.6902 95.7747 11.7042H93.9547C93.9547 11.6902 93.9547 11.6762 93.9547 11.6622C93.9547 11.6482 93.9547 11.6318 93.9547 11.6132C93.9547 11.3985 93.887 11.2235 93.7517 11.0882C93.6164 10.9528 93.4414 10.8525 93.2267 10.7872C93.012 10.7218 92.7857 10.6892 92.5477 10.6892C92.3377 10.6892 92.1207 10.7125 91.8967 10.7592C91.6727 10.8012 91.486 10.8782 91.3367 10.9902C91.1874 11.0975 91.1127 11.2492 91.1127 11.4452C91.1127 11.6318 91.1897 11.7835 91.3437 11.9002C91.4977 12.0168 91.7124 12.1148 91.9877 12.1942C92.263 12.2688 92.5804 12.3365 92.9397 12.3972C93.2804 12.4532 93.6234 12.5302 93.9687 12.6282C94.3187 12.7262 94.6384 12.8568 94.9277 13.0202C95.217 13.1835 95.4504 13.3982 95.6277 13.6642C95.8097 13.9255 95.9007 14.2498 95.9007 14.6372C95.9007 15.0478 95.8074 15.3978 95.6207 15.6872C95.434 15.9765 95.1797 16.2168 94.8577 16.4082C94.5404 16.5948 94.181 16.7325 93.7797 16.8212C93.3784 16.9098 92.963 16.9542 92.5337 16.9542ZM101.073 16.9472C100.289 16.9472 99.5987 16.7838 99.0014 16.4572C98.404 16.1258 97.935 15.6685 97.5944 15.0852C97.2584 14.5018 97.0904 13.8345 97.0904 13.0832C97.0904 12.3272 97.2584 11.6622 97.5944 11.0882C97.935 10.5095 98.404 10.0568 99.0014 9.73017C99.5987 9.4035 100.289 9.24017 101.073 9.24017C101.857 9.24017 102.548 9.4035 103.145 9.73017C103.743 10.0568 104.209 10.5095 104.545 11.0882C104.886 11.6622 105.056 12.3272 105.056 13.0832C105.056 13.8345 104.886 14.5018 104.545 15.0852C104.209 15.6685 103.743 16.1258 103.145 16.4572C102.548 16.7838 101.857 16.9472 101.073 16.9472ZM101.073 15.4422C101.498 15.4422 101.869 15.3442 102.186 15.1482C102.504 14.9522 102.751 14.6792 102.928 14.3292C103.106 13.9745 103.194 13.5592 103.194 13.0832C103.194 12.6072 103.106 12.1965 102.928 11.8512C102.751 11.5012 102.504 11.2305 102.186 11.0392C101.869 10.8478 101.498 10.7522 101.073 10.7522C100.653 10.7522 100.282 10.8478 99.9604 11.0392C99.643 11.2305 99.3957 11.5012 99.2184 11.8512C99.041 12.1965 98.9524 12.6072 98.9524 13.0832C98.9524 13.5592 99.041 13.9745 99.2184 14.3292C99.3957 14.6792 99.643 14.9522 99.9604 15.1482C100.282 15.3442 100.653 15.4422 101.073 15.4422ZM98.8544 8.30917L100.464 6.47517H101.682L103.299 8.30917H102.088L100.814 6.81817H101.318L100.051 8.30917H98.8544ZM102.165 6.76917L103.509 4.92817H104.762L103.264 6.76917H102.165ZM110.255 16.9542C109.471 16.9542 108.778 16.7932 108.176 16.4712C107.574 16.1492 107.102 15.6965 106.762 15.1132C106.421 14.5298 106.251 13.8462 106.251 13.0622C106.251 12.2828 106.421 11.6062 106.762 11.0322C107.102 10.4582 107.574 10.0172 108.176 9.70917C108.778 9.3965 109.471 9.24017 110.255 9.24017C110.843 9.24017 111.363 9.3265 111.816 9.49917C112.268 9.67184 112.649 9.90284 112.957 10.1922C113.269 10.4768 113.507 10.7918 113.671 11.1372C113.834 11.4778 113.916 11.8185 113.916 12.1592C113.916 12.1685 113.916 12.1778 113.916 12.1872C113.916 12.1965 113.916 12.2058 113.916 12.2152H112.089C112.089 12.1918 112.086 12.1662 112.082 12.1382C112.077 12.1102 112.072 12.0822 112.068 12.0542C112.03 11.8162 111.935 11.6015 111.781 11.4102C111.627 11.2142 111.421 11.0578 111.165 10.9412C110.908 10.8245 110.598 10.7662 110.234 10.7662C109.846 10.7662 109.492 10.8525 109.17 11.0252C108.852 11.1932 108.598 11.4475 108.407 11.7882C108.22 12.1288 108.127 12.5535 108.127 13.0622C108.127 13.5662 108.22 13.9955 108.407 14.3502C108.593 14.7002 108.845 14.9685 109.163 15.1552C109.485 15.3372 109.842 15.4282 110.234 15.4282C110.649 15.4282 110.987 15.3652 111.249 15.2392C111.515 15.1085 111.715 14.9358 111.851 14.7212C111.986 14.5018 112.063 14.2638 112.082 14.0072H113.916C113.916 14.3525 113.836 14.7002 113.678 15.0502C113.519 15.3955 113.286 15.7128 112.978 16.0022C112.67 16.2915 112.287 16.5225 111.83 16.6952C111.377 16.8678 110.852 16.9542 110.255 16.9542Z" fill="#7A0916"/>
<defs>
<linearGradient id="paint0_linear_5399_77" x1="0.800049" y1="0.800171" x2="10.4869" y2="48.8472" gradientUnits="userSpaceOnUse">
<stop stop-color="#FFD666"/>
<stop offset="1" stop-color="#FFAB00"/>
</linearGradient>
<clipPath id="clip0_5399_77">
<rect x="10.8" y="5.30017" width="16" height="16" rx="8" fill="white"/>
</clipPath>
</defs>
</svg>
